<?xml version="1.0" standalone="no"?>
<!DOCTYPE svg PUBLIC "-//W3C//DTD SVG 20010904//EN"
 "http://www.w3.org/TR/2001/REC-SVG-20010904/DTD/svg10.dtd">
<svg version="1.0" xmlns="http://www.w3.org/2000/svg"
 width="350.000000pt" height="260.000000pt" viewBox="0 0 350.000000 260.000000"
 preserveAspectRatio="xMidYMid meet">

<g transform="translate(0.000000,260.000000) scale(0.100000,-0.100000)"
fill="#000000" stroke="none">
<path d="M2160 2586 c0 -8 -11 -17 -25 -20 -21 -5 -25 -12 -25 -41 0 -28 -5
-38 -25 -47 -24 -11 -35 -38 -15 -38 6 0 10 -9 10 -20 0 -16 7 -20 35 -20 24
0 35 -5 35 -14 0 -8 3 -21 6 -30 5 -12 0 -16 -19 -16 -14 0 -32 -7 -40 -14
-12 -13 -18 -13 -32 -2 -18 13 -17 14 1 24 18 11 18 11 -3 12 -18 0 -22 -5
-21 -31 l1 -31 59 4 c32 2 58 1 58 -2 0 -4 -29 -8 -64 -9 -57 -2 -65 0 -71 19
-3 11 -11 18 -16 15 -5 -4 -9 1 -9 11 0 13 -3 14 -15 4 -12 -10 -15 -10 -15 1
0 11 -3 11 -11 -1 -9 -12 -10 -11 -6 8 3 14 1 20 -6 15 -6 -4 -8 0 -4 10 3 10
3 17 -2 17 -9 0 -43 109 -36 120 2 4 -9 6 -26 5 -20 -1 -39 -12 -57 -33 -48
-56 -115 -102 -129 -90 -10 8 -12 7 -8 -4 7 -18 -30 -52 -46 -42 -7 4 -10 3
-6 -3 4 -6 -1 -17 -10 -24 -12 -10 -14 -10 -9 -1 4 6 3 12 -2 12 -5 0 -12 -9
-15 -19 -8 -31 -57 -55 -198 -96 -141 -42 -169 -61 -169 -117 0 -45 -17 -68
-49 -68 -16 0 -34 7 -42 16 -15 19 -82 54 -103 54 -8 0 -19 15 -25 33 -18 55
-64 91 -115 92 l-43 0 -12 56 c-27 133 -155 146 -212 21 -21 -45 -25 -49 -48
-42 -14 4 -33 5 -41 2 -30 -9 -70 -56 -85 -101 -14 -43 -19 -47 -72 -64 -69
-22 -113 -52 -113 -78 0 -18 11 -19 378 -19 l377 -1 -65 -25 c-174 -67 -312
-164 -401 -283 -27 -36 -52 -70 -57 -76 -16 -21 -62 -133 -77 -190 -8 -32 -15
-99 -15 -148 l0 -89 -25 6 c-25 6 -25 5 -19 -34 6 -35 1 -54 -32 -125 -28 -60
-46 -87 -64 -94 -62 -25 -75 -53 -47 -103 20 -37 20 -39 3 -111 -15 -67 -36
-312 -28 -337 2 -6 57 -10 142 -10 l139 0 20 -29 c18 -25 28 -29 70 -29 31 -1
54 4 61 14 10 11 9 14 -3 14 -10 0 -14 6 -11 15 4 8 10 15 16 15 15 0 38 -27
38 -44 0 -12 11 -16 44 -16 25 0 48 -4 51 -10 9 -15 35 -12 35 4 0 8 -7 22
-16 30 -14 15 -11 16 38 18 l53 1 -50 7 -50 7 55 -1 c54 -1 55 -2 52 -28 -3
-20 1 -28 12 -28 9 0 16 -6 16 -12 0 -7 3 -23 6 -35 5 -19 2 -23 -15 -23 -12
0 -21 6 -21 15 0 15 -23 20 -70 16 -32 -3 -38 -10 -20 -21 13 -9 13 -10 0 -10
-13 0 -13 -1 0 -10 13 -8 12 -10 -2 -10 -14 0 -18 -8 -18 -34 0 -28 -5 -36
-27 -44 -16 -6 -22 -11 -15 -11 18 -1 42 -26 42 -45 0 -18 -42 -34 -48 -17 -4
13 -22 14 -40 2 -9 -6 -11 -19 -7 -45 l7 -36 1409 0 1409 0 0 1300 0 1300
-670 0 c-566 0 -670 -2 -670 -14z m-280 -100 c0 -2 16 -54 35 -116 19 -62 32
-116 30 -121 -3 -4 0 -9 7 -11 7 -3 9 -12 4 -23 -4 -11 -10 -15 -15 -9 -7 7
-54 152 -87 267 -4 11 0 17 10 17 9 0 16 -2 16 -4z m40 -291 c40 -132 75 -246
78 -254 5 -14 -11 -14 -275 5 l-83 6 -20 69 c-12 38 -26 69 -33 69 -7 0 -62
-16 -122 -35 -61 -20 -118 -34 -128 -31 -9 2 -15 1 -12 -4 5 -8 -36 -22 -44
-15 -2 3 -5 20 -5 39 -1 19 -4 32 -8 29 -13 -8 -9 54 5 64 21 17 218 75 234
69 8 -3 11 -1 8 4 -3 6 0 10 8 10 7 0 80 52 162 115 81 64 151 112 155 108 4
-4 40 -116 80 -248z m1157 166 c13 -19 23 -48 23 -65 0 -30 0 -30 16 -8 23 33
60 29 84 -10 11 -18 20 -43 20 -55 0 -17 8 -23 38 -28 20 -3 48 -13 62 -20 22
-13 -12 -14 -275 -14 -266 0 -298 1 -281 14 11 8 28 15 38 15 12 0 24 13 34
35 20 48 57 71 90 56 35 -15 34 -16 34 32 0 58 23 89 63 85 23 -2 38 -12 54
-37z m-2302 -7 c26 -10 45 -59 45 -119 0 -30 2 -55 3 -55 2 0 18 7 35 15 27
14 35 14 64 2 36 -15 61 -46 71 -87 5 -20 16 -28 49 -37 24 -7 52 -19 63 -27
18 -14 -20 -15 -389 -16 -344 0 -407 2 -397 14 6 7 37 21 69 30 31 10 62 19
68 21 6 2 14 21 18 43 14 89 92 132 135 75 l20 -28 1 32 c1 95 74 164 145 137z
m1212 -40 c-3 -3 -12 -4 -19 -1 -8 3 -5 6 6 6 11 1 17 -2 13 -5z m12 -39 c43
-22 56 -81 27 -121 -18 -23 -18 -23 -40 51 -10 33 -21 66 -23 73 -7 16 2 15
36 -3z m394 -22 c-7 -2 -19 -2 -25 0 -7 3 -2 5 12 5 14 0 19 -2 13 -5z m112
-41 c-3 -3 -11 0 -18 7 -9 10 -8 11 6 5 10 -3 15 -9 12 -12z m-1246 -213 c7
-23 15 -47 18 -55 7 -19 -16 -18 -39 3 -25 23 -24 93 2 93 4 0 12 -18 19 -41z
m1029 -17 c-3 -11 1 -30 8 -43 18 -32 17 -42 -1 -35 -8 3 -21 -1 -28 -9 -15
-14 -82 -24 -93 -13 -3 4 15 17 40 29 39 18 46 25 46 51 0 17 4 27 10 23 6 -3
10 -1 10 4 0 6 3 11 6 11 4 0 4 -8 2 -18z m-658 -152 c144 -17 189 -18 253
-10 130 18 370 39 379 34 4 -3 8 -27 8 -53 0 -48 0 -48 -37 -55 -21 -3 -57 -6
-80 -6 -32 0 -43 -4 -43 -15 0 -13 12 -14 80 -9 l80 7 0 -42 c0 -32 -4 -41
-17 -41 -32 0 -336 -29 -339 -32 -2 -2 0 -8 4 -14 5 -7 44 -6 127 2 66 7 144
13 173 13 l53 1 -3 -37 -3 -38 -170 -17 c-93 -9 -173 -17 -177 -17 -4 -1 -5
-7 -2 -14 4 -10 25 -10 112 0 59 7 143 13 187 14 247 2 329 0 448 -14 82 -10
107 -10 107 -1 0 7 -17 15 -37 18 -42 7 -248 26 -275 26 -14 0 -18 9 -18 40 0
39 1 40 33 40 41 0 244 -19 275 -25 15 -4 22 -1 22 10 0 8 -6 15 -12 15 -7 0
-51 4 -98 10 -47 5 -115 12 -152 15 l-68 7 0 39 c0 30 4 39 18 39 28 0 245
-20 280 -26 23 -3 32 -1 32 9 0 16 -41 22 -195 32 -141 10 -135 7 -135 68 0
52 1 53 28 51 15 -2 104 -11 199 -20 94 -9 176 -20 182 -23 8 -5 16 -443 11
-670 0 -9 -8 -12 -25 -9 -13 3 -22 1 -19 -4 9 -14 -16 -38 -41 -38 -31 0 -50
24 -31 39 13 11 12 15 -5 32 -23 23 -25 74 -3 83 24 9 64 -4 64 -21 0 -9 6
-13 14 -10 8 3 17 1 19 -6 3 -7 3 6 0 28 -8 55 -19 65 -68 65 -49 0 -55 -8
-55 -77 0 -42 -2 -45 -22 -40 -56 14 -343 28 -439 22 -101 -6 -107 -6 -112 14
-10 41 -127 37 -127 -4 0 -9 5 -13 10 -10 17 11 48 -5 53 -27 5 -18 8 -19 22
-8 25 20 31 2 11 -33 l-18 -32 21 19 c12 11 21 25 21 31 0 7 17 15 38 19 58 9
297 7 418 -4 130 -13 154 -17 154 -30 0 -6 -10 -8 -23 -5 -16 4 -29 0 -42 -16
l-20 -22 30 18 30 19 -25 -28 c-24 -26 -25 -26 -34 -7 -7 17 -17 19 -85 18
-42 -1 -88 2 -103 7 -23 7 -28 5 -28 -8 0 -16 -49 -19 -291 -21 -31 0 -45 -4
-42 -11 2 -7 -1 -15 -6 -19 -6 -3 -8 -11 -5 -17 3 -5 -2 -28 -12 -50 -15 -34
-21 -39 -43 -34 l-26 5 24 -11 c21 -11 26 -10 39 10 13 21 15 21 46 5 17 -8
32 -17 34 -18 1 -1 -6 -22 -17 -47 -20 -47 -39 -61 -68 -52 -15 5 -16 4 -3 -5
11 -8 1 -11 -42 -11 -58 0 -58 0 -58 30 0 17 -4 30 -9 30 -5 0 -7 -9 -4 -20 5
-19 0 -20 -73 -22 l-79 -2 74 -5 74 -6 -2 -100 c-2 -93 -4 -102 -28 -128 -26
-26 -30 -27 -139 -27 -97 0 -115 3 -138 21 -24 19 -26 26 -26 97 l0 77 20 -32
c11 -18 22 -33 25 -33 3 0 -5 17 -18 38 -28 43 -37 80 -44 175 -3 41 -1 67 5
67 6 0 13 -6 16 -12 8 -19 -5 53 -15 79 -5 12 -19 25 -32 29 -24 5 -24 7 -10
36 15 28 17 29 64 23 41 -6 49 -4 49 9 0 11 -9 16 -27 16 -59 0 -74 10 -70 44
3 29 6 31 51 34 59 4 57 25 -2 33 -48 6 -46 4 -60 47 -12 36 -13 36 61 32 55
-2 65 16 12 25 -19 3 -50 7 -67 10 -24 4 -41 17 -60 45 l-28 40 38 -1 c20 0
60 -4 89 -8 38 -5 54 -4 57 5 5 14 -22 20 -139 30 -56 4 -92 13 -120 30 -108
63 -232 66 -342 9 -39 -21 -85 -36 -121 -40 -108 -12 -132 -17 -132 -29 0 -9
15 -10 58 -5 109 14 105 16 67 -40 -18 -28 -39 -73 -46 -100 -13 -50 -25 -59
-71 -52 -5 0 -8 -6 -8 -14 0 -10 11 -15 35 -15 34 0 35 -1 35 -40 0 -39 -1
-40 -35 -40 -25 0 -35 -4 -35 -15 0 -12 10 -15 40 -13 22 2 40 6 40 11 0 4 7
7 15 7 12 0 12 -5 4 -24 -8 -18 -8 -30 4 -52 15 -29 15 -29 -35 -62 -40 -27
-52 -31 -59 -21 -7 11 -9 10 -9 -3 0 -9 -8 -22 -17 -27 -15 -9 -16 -10 -2 -11
9 0 41 18 73 40 31 22 60 40 65 40 12 0 65 -59 59 -66 -6 -6 -23 -8 -120 -19
-43 -5 -58 -11 -58 -22 0 -9 6 -13 14 -10 8 3 57 9 110 13 113 8 161 -5 150
-40 -4 -11 -8 -23 -10 -25 -1 -1 -60 -9 -129 -16 -70 -7 -129 -16 -133 -19
-15 -16 16 -18 110 -9 57 6 105 9 107 7 2 -1 -1 -20 -6 -41 l-9 -38 -96 -10
c-92 -10 -119 -18 -106 -31 3 -3 47 -1 97 3 50 5 91 5 91 0 0 -4 -7 -36 -16
-71 l-16 -63 -105 -12 c-58 -7 -107 -10 -109 -8 -3 2 -6 93 -7 201 -1 125 -6
195 -12 192 -110 -40 -137 -48 -149 -43 -13 5 -61 96 -54 102 2 1 17 10 34 18
31 16 33 15 46 -5 l15 -22 54 20 c46 16 54 23 57 47 l3 27 28 -20 29 -20 41
30 c54 40 53 49 -2 12 l-42 -30 -38 30 -37 30 0 333 c0 309 1 334 18 339 9 3
87 12 172 20 85 9 171 18 190 20 73 9 352 -4 520 -24z m684 -92 c8 -6 8 -8 -1
-8 -11 0 -9 -142 3 -161 3 -5 0 -9 -6 -9 -7 0 -9 -7 -6 -16 3 -8 2 -12 -4 -9
-6 4 -10 57 -9 128 1 67 4 113 6 102 3 -11 10 -23 17 -27z m93 -20 c-3 -8 -6
-5 -6 6 -1 11 2 17 5 13 3 -3 4 -12 1 -19z m3 -153 c0 -28 -3 -33 -17 -28 -11
4 -12 8 -5 11 7 2 12 15 12 28 0 13 2 24 5 24 3 0 5 -16 5 -35z m-1027 -18
c92 -46 166 -148 183 -254 6 -39 5 -43 -15 -43 -15 0 -22 8 -26 28 -22 107
-59 166 -133 213 -61 39 -115 52 -183 46 -152 -13 -263 -137 -263 -292 1 -83
24 -137 87 -203 68 -70 196 -102 286 -71 38 13 47 8 32 -19 -15 -27 -39 -34
-123 -33 -86 1 -163 32 -227 94 -52 50 -84 113 -70 139 7 13 4 20 -12 29 -20
10 -21 17 -16 84 10 135 90 247 210 295 76 30 194 24 270 -13z m8 -72 c23 -16
49 -41 58 -55 14 -23 14 -24 0 -12 -20 15 -413 12 -429 -4 -6 -6 64 -10 215
-9 248 0 249 0 261 -64 l7 -34 -35 7 c-47 9 -365 9 -441 0 l-60 -7 7 34 c13
65 88 149 153 169 15 5 72 8 125 7 89 -2 99 -4 139 -32z m1746 -145 c-4 -51
-35 -146 -43 -137 -13 12 -22 113 -15 153 17 90 67 77 58 -16z m132 26 c15
-18 3 -46 -37 -88 l-26 -28 31 0 c30 0 63 -21 63 -40 0 -32 -82 -49 -159 -34
-28 6 -30 9 -18 23 7 9 22 37 31 64 18 47 73 117 93 117 6 0 16 -6 22 -14z
m-1836 -72 c55 -5 77 -11 77 -20 0 -8 -9 -14 -19 -14 -11 0 -27 -10 -35 -22
-16 -22 -22 -23 -224 -26 -114 -2 -220 -4 -237 -5 -28 -2 -30 1 -33 35 -3 41
1 44 83 51 76 7 312 7 388 1z m-743 -34 c6 -25 -5 -58 -25 -72 -6 -5 -5 -12 2
-19 9 -9 10 -16 2 -26 -15 -17 -40 -17 -63 0 -15 11 -16 18 -8 34 8 15 7 25
-4 41 -18 26 -9 49 12 31 11 -9 15 -7 21 7 15 41 54 43 63 4z m2283 -10 c19
-32 39 -158 26 -166 -4 -2 -19 12 -33 33 -21 30 -26 50 -26 100 0 35 4 63 8
63 4 0 16 -13 25 -30z m-1465 -7 c-18 -3 -30 -13 -37 -31 -8 -22 -10 -23 -10
-6 -1 27 18 44 49 43 l25 -2 -27 -4z m52 -13 c0 -5 -4 -10 -10 -10 -5 0 -10 5
-10 10 0 6 5 10 10 10 6 0 10 -4 10 -10z m3 -42 c3 -11 2 -31 -3 -43 -7 -18
-15 -22 -32 -19 -22 5 -22 5 -3 -7 11 -6 22 -13 24 -15 2 -2 -2 -12 -10 -21
-13 -17 -13 -17 4 -4 27 21 37 0 37 -81 l0 -68 -70 0 -70 0 16 38 c9 20 18 43
21 50 3 6 1 12 -5 12 -6 0 -12 -5 -14 -11 -2 -7 -15 -9 -35 -5 -31 7 -31 8
-18 39 16 38 37 45 71 22 14 -9 31 -14 37 -11 7 2 5 5 -4 5 -9 1 -22 8 -29 16
-10 11 -9 18 4 30 11 12 13 22 6 41 -13 34 -13 39 5 24 14 -12 19 -7 17 20 0
3 10 6 23 6 16 1 25 -5 28 -18z m-119 -76 c-1 -2 -98 -5 -216 -7 l-214 -3 -11
36 c-6 20 -9 39 -6 42 2 3 102 7 221 10 l217 5 5 -40 c3 -22 5 -41 4 -43z
m-988 53 c46 -14 49 -16 49 -49 0 -19 -3 -32 -7 -29 -5 2 -8 -1 -8 -6 0 -6 5
-11 10 -11 6 0 10 -30 10 -69 l0 -69 -30 11 c-23 9 -33 23 -49 67 -37 103 -50
170 -33 170 5 0 31 -7 58 -15z m542 -40 c-3 -3 -9 2 -12 12 -6 14 -5 15 5 6 7
-7 10 -15 7 -18z m467 15 c-3 -5 -1 -10 6 -10 7 0 10 -3 6 -6 -9 -9 -28 6 -22
17 4 5 8 9 11 9 3 0 2 -4 -1 -10z m1705 -12 c-1 -34 -63 -68 -124 -68 -36 0
-52 -17 -70 -77 -9 -30 14 -31 40 -2 38 42 125 75 155 58 27 -14 23 -41 -8
-71 -37 -35 -75 -49 -155 -57 -64 -6 -68 -6 -68 14 0 26 71 156 90 166 8 4 22
10 30 14 8 3 26 12 40 20 31 18 70 19 70 3z m-280 -13 c10 -13 10 -23 -5 -55
l-17 -39 -33 16 c-30 14 -32 18 -24 42 20 52 53 67 79 36z m-158 -6 c2 -6 18
-14 35 -17 31 -7 31 -7 17 -40 l-14 -34 -37 23 c-56 33 -58 36 -38 59 20 22
32 25 37 9z m-1334 -34 c2 -2 -3 -16 -12 -33 -19 -37 -37 -42 -154 -42 -95 0
-150 16 -181 54 -15 18 2 24 94 30 59 3 247 -3 253 -9z m200 -10 c-3 -3 -9 2
-12 12 -6 14 -5 15 5 6 7 -7 10 -15 7 -18z m593 -16 c7 -23 7 -23 8 4 l1 28
119 -2 c66 -1 124 2 130 5 18 11 31 -3 31 -35 0 -32 -29 -43 -31 -11 0 12 -2
13 -6 3 -3 -8 2 -20 13 -28 15 -11 -3 -13 -124 -13 -107 0 -142 3 -142 13 0 6
-6 3 -12 -8 -6 -11 -12 -22 -14 -24 -6 -6 -64 21 -64 30 0 14 24 64 34 71 16
11 50 -8 57 -33z m465 16 c22 -9 56 -25 77 -36 36 -20 39 -20 51 -4 12 16 15
16 44 1 37 -19 36 -14 17 -59 -27 -64 -43 -65 -155 -5 -55 28 -101 57 -104 64
-4 10 19 54 28 54 2 0 21 -7 42 -15z m-1049 -37 c-3 -8 -6 -5 -6 6 -1 11 2 17
5 13 3 -3 4 -12 1 -19z m1275 -73 l-4 -65 -99 0 -99 0 0 30 c0 17 3 30 6 30 3
0 25 -12 50 -26 63 -37 89 -28 120 41 14 30 26 55 27 55 1 0 0 -29 -1 -65z
m-1439 35 c5 -4 4 -18 -3 -29 -6 -12 -16 -50 -21 -84 -17 -110 -31 -147 -56
-147 -12 0 -25 4 -28 10 -9 14 14 179 32 228 15 39 19 43 42 37 14 -4 30 -10
34 -15z m1121 -36 c34 -16 62 -18 71 -4 14 22 25 8 25 -33 l0 -43 -72 7 c-40
4 -148 8 -240 8 l-168 1 4 33 c2 17 4 35 5 39 3 21 329 14 375 -8z m71 7 c-8
-13 -55 -15 -55 -2 0 5 12 11 28 13 32 4 36 3 27 -11z m-465 -61 c0 -49 0 -50
-32 -50 -29 0 -30 1 -15 18 9 10 22 33 28 50 6 18 13 32 15 32 2 0 4 -22 4
-50z m-1827 33 c-7 -2 -21 -2 -30 0 -10 3 -4 5 12 5 17 0 24 -2 18 -5z m822
-46 c1 -14 4 -29 8 -33 15 -15 4 -76 -51 -279 l-57 -210 -31 -3 c-16 -2 -42 2
-57 7 -37 14 -35 33 18 236 25 94 50 189 56 212 7 25 21 49 35 58 13 8 24 24
24 34 0 16 5 18 28 12 20 -6 27 -14 27 -34z m171 6 c-3 -3 -38 -1 -78 4 -72
10 -72 10 -23 13 28 1 61 5 75 9 18 5 26 3 28 -7 2 -7 1 -16 -2 -19z m-832 8
c3 -4 -4 -7 -14 -7 -11 0 -22 6 -24 12 -5 12 31 8 38 -5z m-261 -6 c-3 -9 -8
-14 -10 -11 -3 3 -2 9 2 15 9 16 15 13 8 -4z m37 5 c0 -5 -2 -10 -4 -10 -3 0
-8 5 -11 10 -3 6 -1 10 4 10 6 0 11 -4 11 -10z m277 -6 c-3 -3 -12 -4 -19 -1
-8 3 -5 6 6 6 11 1 17 -2 13 -5z m146 -1 c-24 -2 -62 -2 -86 0 -23 2 -4 4 43
4 47 0 66 -2 43 -4z m-258 -24 c11 -11 -35 -3 -70 13 -13 5 -7 6 20 2 22 -3
45 -10 50 -15z m-95 -12 c10 -4 8 -6 -7 -6 -16 -1 -23 5 -23 17 0 10 3 13 8 6
4 -6 14 -14 22 -17z m2788 0 c3 -15 0 -16 -25 -5 -46 19 -51 30 -13 26 24 -2
36 -9 38 -21z m-2631 -19 c-3 -7 -5 -2 -5 12 0 14 2 19 5 13 2 -7 2 -19 0 -25z
m232 -45 c1 -43 6 -132 11 -198 5 -66 10 -139 10 -162 l0 -43 -44 0 c-54 0
-52 -3 -61 185 -7 156 -13 215 -24 215 -8 0 -14 -61 -27 -287 l-7 -113 -49 0
-50 0 6 68 c3 37 8 110 11 162 3 52 8 130 11 173 l6 77 103 0 102 0 2 -77z
m589 34 l-3 -42 -60 3 c-33 2 -60 4 -61 5 -1 1 -4 18 -7 38 l-5 37 69 0 70 1
-3 -42z m1275 27 l57 -7 0 -39 0 -40 -112 8 c-62 4 -169 8 -237 8 l-125 1 0
35 c0 30 4 36 30 42 31 8 292 2 387 -8z m500 -16 c26 -11 47 -26 47 -32 0 -6
-9 -26 -20 -43 -23 -38 -9 -44 30 -13 14 11 30 20 37 20 37 0 119 -167 137
-280 l13 -80 -189 0 -190 0 128 95 c70 52 123 95 118 95 -5 0 -68 -41 -139
-90 l-130 -91 -3 45 c-2 25 1 60 7 78 43 144 50 170 42 162 -5 -5 -18 -34 -29
-64 l-21 -55 0 136 c-1 75 1 138 4 141 11 10 112 -5 158 -24z m-2618 12 c3 -6
-1 -7 -9 -4 -18 7 -21 14 -7 14 6 0 13 -4 16 -10z m1635 -20 c0 -6 -32 -10
-75 -10 -43 0 -75 4 -75 10 0 6 32 10 75 10 43 0 75 -4 75 -10z m50 0 c0 -5
-4 -10 -10 -10 -5 0 -10 5 -10 10 0 6 5 10 10 10 6 0 10 -4 10 -10z m-1820
-35 c0 -9 10 -20 23 -25 12 -5 16 -9 8 -9 -16 -1 -51 27 -51 41 0 4 5 8 10 8
6 0 10 -7 10 -15z m153 -19 c-4 -6 -6 -19 -5 -28 4 -20 -29 -40 -47 -29 -10 6
-9 10 4 15 9 3 21 3 27 0 6 -4 8 1 4 14 -4 11 -2 23 4 27 8 5 7 12 -2 23 -12
15 -11 16 4 3 10 -7 15 -18 11 -25z m1668 17 c0 -10 2 -36 4 -58 8 -73 27
-397 23 -400 -2 -2 -23 -5 -48 -6 l-45 -4 -7 120 c-15 231 -20 285 -28 285 -8
0 -16 -83 -26 -283 -7 -125 -7 -128 -28 -123 -12 3 -34 6 -50 6 l-28 0 6 78
c3 42 8 122 11 177 3 55 8 128 11 163 l6 62 99 0 c87 0 99 -2 100 -17z m-1751
-48 c11 -13 10 -14 -4 -9 -9 3 -16 10 -16 15 0 13 6 11 20 -6z m908 -5 c7 -11
23 -20 37 -20 24 0 25 -3 25 -54 l0 -54 -117 5 c-65 3 -119 6 -120 7 -2 2 20
86 32 124 3 8 26 12 67 12 52 0 65 -3 76 -20z m1217 10 c60 -6 111 -13 113
-15 2 -2 1 -34 -3 -70 l-8 -67 -61 7 c-33 4 -135 8 -226 10 l-165 2 -3 66 c-2
56 0 66 15 70 34 9 229 7 338 -3z m-1058 -32 c-3 -8 -6 -5 -6 6 -1 11 2 17 5
13 3 -3 4 -12 1 -19z m-987 -65 c0 -36 -3 -44 -10 -33 -8 11 -9 7 -4 -15 4
-16 7 -32 6 -35 0 -3 0 -34 -1 -69 l-1 -65 -35 34 c-47 45 -45 26 2 -22 l37
-38 -117 0 c-116 0 -117 0 -117 23 0 79 74 186 164 237 70 41 76 39 76 -17z
m1007 -30 c-2 -16 -4 -3 -4 27 0 30 2 43 4 28 2 -16 2 -40 0 -55z m-866 -72
c2 -74 -1 -106 -9 -109 -8 -2 -12 14 -12 55 0 58 11 166 16 161 1 -2 4 -50 5
-107z m2149 58 c0 -16 -4 -29 -10 -29 -5 0 -10 16 -10 36 0 21 4 33 10 29 6
-3 10 -19 10 -36z m-1145 -9 c3 -5 -1 -10 -9 -10 -9 0 -16 5 -16 10 0 6 4 10
9 10 6 0 13 -4 16 -10z m285 -10 c-8 -5 -17 -7 -19 -4 -3 3 1 9 9 14 8 5 17 7
19 4 3 -3 -1 -9 -9 -14z m-581 4 c26 -6 31 -11 31 -35 l0 -29 -126 0 c-111 0
-125 2 -120 16 3 9 6 22 6 29 0 8 10 16 23 18 36 7 152 7 186 1z m1254 -10
c39 -6 47 -10 47 -28 0 -43 -10 -46 -105 -36 -50 5 -147 10 -217 10 l-128 0 0
29 c0 23 5 31 23 35 27 6 317 -2 380 -10z m-1639 -31 c-10 -41 -10 -41 -67
-47 -28 -4 -69 -9 -89 -12 -38 -6 -38 -6 -38 29 l0 36 58 6 c31 4 62 8 67 10
6 2 25 4 43 4 30 1 32 -1 26 -26z m543 -20 c-3 -10 -5 -2 -5 17 0 19 2 27 5
18 2 -10 2 -26 0 -35z m369 -30 c-4 -43 -14 -88 -22 -100 -27 -43 -123 -39
-151 6 -9 14 -19 131 -14 164 1 4 44 7 97 7 l97 0 -7 -77z m204 47 c0 -16 -4
-30 -10 -30 -5 0 -10 14 -10 30 0 17 5 30 10 30 6 0 10 -13 10 -30z m-420 1
c0 -11 3 -26 6 -35 4 -11 0 -16 -14 -16 -15 0 -21 8 -24 35 -3 29 -1 35 14 35
11 0 18 -7 18 -19z m280 -16 c0 -28 -4 -35 -20 -35 -27 0 -29 56 -2 63 9 3 18
5 20 6 1 0 2 -15 2 -34z m850 -11 c0 -21 -4 -33 -10 -29 -5 3 -10 19 -10 36 0
16 5 29 10 29 6 0 10 -16 10 -36z m-160 -105 c9 -5 -27 -9 -87 -9 -85 0 -103
3 -103 15 0 13 13 14 88 9 48 -4 94 -10 102 -15z m-1980 1 c0 -5 -7 -10 -16
-10 -8 0 -12 5 -9 10 3 6 10 10 16 10 5 0 9 -4 9 -10z m217 -6 c-3 -3 -12 -4
-19 -1 -8 3 -5 6 6 6 11 1 17 -2 13 -5z m63 -34 c0 -5 12 -16 28 -24 15 -8 25
-16 22 -16 -38 -9 -53 -9 -40 0 9 6 11 10 3 10 -7 0 -17 9 -23 20 -7 14 -7 20
0 20 5 0 10 -4 10 -10z m343 3 c-7 -2 -21 -2 -30 0 -10 3 -4 5 12 5 17 0 24
-2 18 -5z m94 -55 c-3 -8 -6 -5 -6 6 -1 11 2 17 5 13 3 -3 4 -12 1 -19z m-537
-153 c0 -24 -5 -35 -15 -35 -10 0 -15 11 -15 35 0 24 5 35 15 35 10 0 15 -11
15 -35z m-110 -135 c0 -5 -2 -10 -4 -10 -3 0 -8 5 -11 10 -3 6 -1 10 4 10 6 0
11 -4 11 -10z"/>
<path d="M1045 1741 c-219 -22 -225 -23 -225 -37 0 -12 10 -13 48 -9 285 34
514 34 770 -1 32 -4 42 -2 42 9 0 29 -451 56 -635 38z"/>
<path d="M975 1625 c-66 -7 -128 -14 -137 -14 -10 -1 -18 -8 -18 -16 0 -12 8
-15 33 -10 163 27 507 33 697 11 63 -7 119 -9 124 -5 15 14 7 16 -89 29 -141
18 -472 21 -610 5z"/>
<path d="M2060 1409 c-127 -13 -154 -19 -142 -31 7 -7 48 -6 134 3 67 7 203
13 301 14 135 0 177 3 177 13 0 14 -327 15 -470 1z"/>
<path d="M1960 1181 c-52 -7 -52 -27 -1 -24 21 2 38 -3 45 -12 9 -12 11 -10
12 15 1 16 -2 29 -5 28 -3 0 -26 -4 -51 -7z"/>
<path d="M2802 1170 c-7 -11 -9 -20 -4 -20 4 0 13 9 20 20 7 11 9 20 4 20 -4
0 -13 -9 -20 -20z"/>
<path d="M2025 1109 c5 -13 -6 -19 -53 -29 -42 -10 -58 -18 -55 -27 3 -7 12
-13 20 -13 8 0 13 -8 11 -17 -3 -20 9 -43 21 -43 4 0 6 12 3 28 -2 19 3 33 17
46 20 18 22 18 40 2 11 -10 28 -16 38 -13 15 4 15 5 -3 6 -29 1 -47 24 -32 39
9 9 9 15 -1 25 -10 10 -11 9 -6 -4z"/>
<path d="M776 1066 c3 -8 14 -16 25 -19 25 -7 24 -3 -6 17 -19 13 -23 13 -19
2z"/>
<path d="M1917 1003 c-10 -9 -9 -23 1 -23 5 0 9 7 9 15 0 17 -1 18 -10 8z"/>
<path d="M1700 981 c-30 -11 -58 -17 -62 -15 -9 6 -10 -8 -2 -30 5 -13 9 -12
27 5 12 10 38 24 58 29 41 11 128 5 143 -10 14 -14 -18 -13 -47 1 -21 10 -21
10 -3 -5 11 -9 26 -16 34 -16 8 0 21 -8 29 -17 13 -17 14 -16 8 4 -3 12 -2 30
3 40 8 15 6 18 -16 20 -15 0 -47 4 -72 7 -32 5 -61 1 -100 -13z"/>
<path d="M1772 949 c2 -6 14 -16 26 -20 29 -11 28 -5 -4 16 -17 11 -25 12 -22
4z"/>
<path d="M1734 926 c-9 -23 0 -59 14 -64 11 -3 11 -1 0 17 -10 17 -10 25 0 41
7 13 8 20 2 20 -6 0 -13 -6 -16 -14z"/>
<path d="M1696 816 c3 -8 13 -17 22 -21 13 -5 13 -2 -3 15 -21 24 -26 25 -19
6z"/>
<path d="M1710 777 c12 -17 11 -21 -10 -38 -14 -10 -20 -19 -14 -19 6 0 19 9
29 20 18 20 18 21 0 38 -18 16 -18 16 -5 -1z"/>
</g>
</svg>
